<svg xmlns="http://www.w3.org/2000/svg" version="1.0" viewBox="0 0 64 64"><g stroke-width="0"><path d="M32 0H4v4H0v56h4v4h56v-4h4V4h-4V0H32zm0 4h28v56H4V4h28z"/><path d="M24.5 11H11v4h23v4H11v11h27v-4H15v-3h23V11H24.5zM47 11h-6v4h4v34h-4v4h12v-4h-4V15h4v-4h-6zM24.5 34H15v4h-4v11h4v4h19v-4h4V38h-4v-4h-9.5zm0 4H34v11H15V38h9.5z"/></g><path fill="#FFF" d="M32 4H4v56h56V4H32zm-7.5 7H38v12H15v3h23v4H11V19h23v-4H11v-4h13.5zM47 11h6v4h-4v34h4v4H41v-4h4V15h-4v-4h6zM24.5 34H34v4H15v-4h9.5zM13 38h2v11h-4V38h2zm23 0h2v11h-4V38h2zM24.5 49H34v4H15v-4h9.5z"/></svg>